<svg id="Layer_1" data-name="Layer 1" xmlns="http://www.w3.org/2000/svg" viewBox="0 0 257.89 257.89"><defs><style>.cls-1{fill:#2b2b2b;}</style></defs><title>Basic App</title><path class="cls-1" d="M129.4,178.28q31.75,0,63.53,0c5.7,0,12-.18,11.79,7.67-.21,7.27-6,7.89-12,7.88q-62.92-.12-125.84,0c-6.2,0-12.85-.29-12.4-8.57.42-7.62,7-7,12.58-6.95Q98.23,178.33,129.4,178.28Z" id="id_107" style="fill: rgb(245, 255, 255);"></path><path class="cls-1" d="M130.44,67.9c20.81,0,41.62,0,62.43,0,5.79,0,11.94.2,11.94,7.77,0,7.21-5.6,8.16-11.71,8.14-42.41-.11-84.81-.17-127.22.08-6.61,0-11.46-2.08-11.4-8.6S59.93,68,65.66,68.09c21.59.25,43.19.1,64.78.1Z" id="id_108" style="fill: rgb(245, 255, 255);"></path><path class="cls-1" d="M129.45,138.34c-21.2,0-42.4-.11-63.6.07-5.54,0-11.07-.26-11.28-7-.23-7.57,5.85-8,11.67-8q63.63,0,127.25,0c5.27,0,11.09,0,11.28,7.07.21,7.83-6,7.94-11.7,7.95H129.45Z" id="id_109" style="fill: rgb(245, 255, 255);"></path></svg>